<?xml version="1.0" encoding="UTF-8" standalone="no"?>
<!-- Created with Inkscape (http://www.inkscape.org/) -->
<svg xmlns:dc="http://purl.org/dc/elements/1.1/" xmlns:cc="http://web.resource.org/cc/" xmlns:rdf="http://www.w3.org/1999/02/22-rdf-syntax-ns#" xmlns:svg="http://www.w3.org/2000/svg" xmlns="http://www.w3.org/2000/svg" xmlns:sodipodi="http://sodipodi.sourceforge.net/DTD/sodipodi-0.dtd" xmlns:inkscape="http://www.inkscape.org/namespaces/inkscape" width="637.90002" height="314.35999" id="svg2" sodipodi:version="0.32" inkscape:version="0.45.1" sodipodi:docbase="/home/klopmang/Documents/wiki" sodipodi:docname="crest_trough.svg" version="1.0" inkscape:output_extension="org.inkscape.output.svg.inkscape">
  <sodipodi:namedview id="base" pagecolor="#ffffff" bordercolor="#666666" borderopacity="1.0" gridtolerance="10000" guidetolerance="10" objecttolerance="10" inkscape:pageopacity="1" inkscape:pageshadow="2" inkscape:zoom="2.0473428" inkscape:cx="318.95002" inkscape:cy="123.60536" inkscape:document-units="px" inkscape:current-layer="layer1" showgrid="false" inkscape:showpageshadow="false" width="637.90002px" height="314.36px" inkscape:window-width="1400" inkscape:window-height="980" inkscape:window-x="0" inkscape:window-y="0"/>
  <defs id="defs4">
    <marker inkscape:stockid="Arrow1Lstart" orient="auto" refY="0" refX="0" id="Arrow1Lstart" style="overflow:visible">
      <path id="path4135" d="M 0,0 L 5,-5 L -12.5,0 L 5,5 L 0,0 z " style="fill-rule:evenodd;stroke:#000000;stroke-width:1pt;marker-start:none" transform="matrix(0.8,0,0,0.8,10,0)"/>
    </marker>
    <marker inkscape:stockid="Arrow1Lend" orient="auto" refY="0" refX="0" id="Arrow1Lend" style="overflow:visible">
      <path id="path4138" d="M 0,0 L 5,-5 L -12.5,0 L 5,5 L 0,0 z " style="fill-rule:evenodd;stroke:#000000;stroke-width:1pt;marker-start:none" transform="matrix(-0.8,0,0,-0.8,-10,0)"/>
    </marker>
    <marker inkscape:stockid="Arrow2Lend" orient="auto" refY="0" refX="0" id="Arrow2Lend" style="overflow:visible">
      <path id="path4156" style="font-size:12px;fill-rule:evenodd;stroke-width:0.625;stroke-linejoin:round" d="M 8.7185878,4.0337352 L -2.2072895,0.016013256 L 8.7185884,-4.0017078 C 6.97309,-1.6296469 6.9831476,1.6157441 8.7185878,4.0337352 z " transform="matrix(-1.1,0,0,-1.1,-1.1,0)"/>
    </marker>
  </defs>
  <metadata id="metadata7">
    <rdf:RDF>
      <cc:Work rdf:about="">
        <dc:format>image/svg+xml</dc:format>
        <dc:type rdf:resource="http://purl.org/dc/dcmitype/StillImage"/>
      </cc:Work>
    </rdf:RDF>
  </metadata>
  <g inkscape:label="Layer 1" id="layer1" inkscape:groupmode="layer" transform="translate(-59.550198,-192.36218)">
    <path style="fill:#019ffc;fill-opacity:1;stroke:none;stroke-width:2.4749999;stroke-linecap:butt;stroke-linejoin:miter;stroke-miterlimit:4;stroke-dasharray:none;stroke-dashoffset:48.99999211;stroke-opacity:1" d="M 80.78125,283.90625 L 80.78125,286.375 C 81.665602,286.37507 82.547472,286.47586 83.4375,286.65625 C 84.327212,286.83655 85.221042,287.10581 86.125,287.46875 C 87.028583,287.83155 87.955442,288.29888 88.875,288.84375 C 89.794295,289.38849 90.723232,290.02955 91.65625,290.75 C 92.58908,291.4703 93.525467,292.27233 94.46875,293.15625 C 95.411879,294.04003 96.361829,295.00038 97.3125,296.03125 C 98.263077,297.06201 99.200301,298.15434 100.15625,299.3125 C 101.11214,300.47058 102.07145,301.67371 103.03125,302.9375 C 103.991,304.20123 104.97485,305.52861 105.9375,306.875 C 106.90014,308.22136 107.84758,309.59464 108.8125,311 C 109.7774,312.40535 110.75198,313.84058 111.71875,315.28125 C 112.68553,316.7219 113.65656,318.17211 114.625,319.625 C 115.59343,321.07789 116.56126,322.52566 117.53125,323.96875 C 118.50127,325.41189 119.46593,326.83711 120.4375,328.25 C 121.4091,329.66292 122.37049,331.07319 123.34375,332.4375 C 124.31705,333.80182 125.30611,335.13782 126.28125,336.4375 C 127.25642,337.73726 128.24152,338.99711 129.21875,340.21875 C 130.19604,341.44047 131.17662,342.61702 132.15625,343.75 C 133.13594,344.88304 134.11144,345.96348 135.09375,347 C 136.07614,348.03658 137.04599,349.0337 138.03125,349.96875 C 139.01659,350.90392 140.01176,351.79375 141,352.625 C 141.98837,353.45634 142.97761,354.24112 143.96875,354.96875 C 144.96001,355.69648 145.94398,356.3735 146.9375,357 C 147.93117,357.62657 148.94236,358.18878 149.9375,358.71875 C 150.93276,359.24878 151.91063,359.71635 152.90625,360.15625 C 153.90202,360.59622 154.91131,361.01715 155.90625,361.375 C 156.90135,361.73292 157.88187,362.02761 158.875,362.3125 C 159.8683,362.5974 160.85311,362.87219 161.84375,363.09375 C 162.83449,363.31533 163.82483,363.48841 164.8125,363.65625 C 165.80028,363.8241 166.79656,363.97063 167.78125,364.09375 C 168.76603,364.21689 169.73679,364.31994 170.71875,364.40625 C 171.70082,364.49258 172.70771,364.56906 173.6875,364.625 C 174.66736,364.68097 175.64672,364.7197 176.625,364.75 C 177.60337,364.78031 178.58489,364.80512 179.5625,364.8125 C 180.54018,364.81991 181.49103,364.82732 182.46875,364.8125 C 183.44655,364.79768 184.42754,364.75718 185.40625,364.71875 C 186.38506,364.68035 187.36333,364.62793 188.34375,364.5625 C 189.32427,364.49706 190.32966,364.41025 191.3125,364.3125 C 192.2954,364.21474 193.26433,364.1058 194.25,363.96875 C 195.2358,363.83171 196.23007,363.68465 197.21875,363.5 C 198.20754,363.31531 199.19596,363.08528 200.1875,362.84375 C 201.17919,362.60219 202.16238,362.33933 203.15625,362.03125 C 204.15025,361.72313 205.16095,361.38416 206.15625,361 C 207.15169,360.61577 208.12941,360.18777 209.125,359.71875 C 210.12077,359.24966 211.13031,358.74891 212.125,358.1875 C 213.11988,357.62598 214.10096,357.00342 215.09375,356.34375 C 216.08669,355.68395 217.07229,354.98065 218.0625,354.21875 C 219.05286,353.45674 220.044,352.64707 221.03125,351.78125 C 222.0186,350.91529 223.01575,349.96917 224,349 C 224.98435,348.03075 225.9561,347.03803 226.9375,345.96875 C 227.91895,344.89941 228.8962,343.75721 229.875,342.59375 C 230.85386,341.43022 231.83599,340.21766 232.8125,338.96875 C 233.78904,337.7198 234.77552,336.44776 235.75,335.125 C 236.72452,333.80216 237.68356,332.44484 238.65625,331.0625 C 239.62896,329.68012 240.62271,328.26883 241.59375,326.84375 C 242.56482,325.41865 243.53052,323.97994 244.5,322.53125 C 245.46948,321.08256 246.43835,319.63884 247.40625,318.1875 C 248.37416,316.73618 249.34631,315.27527 250.3125,313.84375 C 251.27866,312.41224 252.22328,310.98215 253.1875,309.59375 C 254.1517,308.20539 255.13196,306.85277 256.09375,305.53125 C 257.05548,304.20978 258.01011,302.94994 258.96875,301.71875 C 259.92735,300.48764 260.88937,299.30568 261.84375,298.1875 C 262.79808,297.06941 263.73902,296.01531 264.6875,295.03125 C 265.63583,294.04731 266.59103,293.11248 267.53125,292.28125 C 268.47127,291.45015 269.41484,290.69444 270.34375,290.03125 C 271.27241,289.36824 272.17927,288.79731 273.09375,288.3125 C 274.00788,287.82786 274.91359,287.42713 275.8125,287.125 C 276.71098,286.82304 277.61287,286.62024 278.5,286.5 C 279.38668,286.37984 280.27107,286.34633 281.15625,286.40625 C 282.04093,286.46613 282.91831,286.63394 283.8125,286.875 C 284.70623,287.11591 285.62202,287.45109 286.53125,287.875 C 287.44012,288.29874 288.35687,288.80183 289.28125,289.40625 C 290.20541,290.01051 291.12569,290.72344 292.0625,291.5 C 292.99911,292.27639 293.92898,293.12759 294.875,294.0625 C 295.8209,294.99727 296.7661,295.9869 297.71875,297.0625 C 298.67128,298.13799 299.63639,299.30414 300.59375,300.5 C 301.55106,301.69578 302.50791,302.92482 303.46875,304.21875 C 304.42955,305.51261 305.41153,306.85007 306.375,308.21875 C 307.33845,309.5874 308.28442,310.98651 309.25,312.40625 C 310.21556,313.82601 311.18891,315.27148 312.15625,316.71875 C 313.12359,318.16598 314.09353,319.64176 315.0625,321.09375 C 316.03147,322.54575 316.99823,323.97104 317.96875,325.40625 C 318.93929,326.84146 319.90286,328.25762 320.875,329.65625 C 321.84714,331.05495 322.83865,332.43684 323.8125,333.78125 C 324.78641,335.12572 325.74294,336.44372 326.71875,337.71875 C 327.69459,338.99385 328.67826,340.24438 329.65625,341.4375 C 330.63431,342.63071 331.61325,343.77345 332.59375,344.875 C 333.57431,345.97661 334.54798,347.02814 335.53125,348.03125 C 336.51461,349.03445 337.51375,349.97441 338.5,350.875 C 339.48634,351.77569 340.47953,352.64093 341.46875,353.4375 C 342.4581,354.23414 343.44548,354.96272 344.4375,355.65625 C 345.42963,356.34988 346.41209,357.00004 347.40625,357.59375 C 348.40058,358.18757 349.41084,358.7196 350.40625,359.21875 C 351.40179,359.71794 352.37947,360.18215 353.375,360.59375 C 354.37069,361.00543 355.38054,361.38628 356.375,361.71875 C 357.36957,362.05126 358.35136,362.33106 359.34375,362.59375 C 360.33626,362.85647 361.32281,363.07865 362.3125,363.28125 C 363.30231,363.4839 364.2946,363.66053 365.28125,363.8125 C 366.26804,363.9645 367.26627,364.10872 368.25,364.21875 C 369.23384,364.3288 370.20636,364.42443 371.1875,364.5 C 372.16873,364.57555 373.14579,364.64052 374.125,364.6875 C 375.10424,364.73446 376.08454,364.75879 377.0625,364.78125 C 378.04054,364.80371 379.02245,364.81249 380,364.8125 C 380.97758,364.81251 381.95951,364.80369 382.9375,364.78125 C 383.91553,364.75882 384.89579,364.73444 385.875,364.6875 C 386.85426,364.64054 387.83132,364.57553 388.8125,364.5 C 389.79378,364.42446 390.76628,364.32873 391.75,364.21875 C 392.73385,364.10876 393.73211,363.96442 394.71875,363.8125 C 395.70555,363.66056 396.69785,363.4838 397.6875,363.28125 C 398.67733,363.07868 399.66388,362.85636 400.65625,362.59375 C 401.64877,362.33107 402.63054,362.05116 403.625,361.71875 C 404.61962,361.38628 405.62948,361.00526 406.625,360.59375 C 407.6207,360.18218 408.59836,359.71778 409.59375,359.21875 C 410.5893,358.7196 411.59957,358.18736 412.59375,357.59375 C 413.58808,357.00004 414.57051,356.34968 415.5625,355.65625 C 416.55466,354.96272 417.542,354.23396 418.53125,353.4375 C 419.52062,352.64092 420.51376,351.77548 421.5,350.875 C 422.48638,349.97442 423.48548,349.03427 424.46875,348.03125 C 425.45209,347.02815 426.42576,345.97645 427.40625,344.875 C 428.38681,343.77346 429.36574,342.63055 430.34375,341.4375 C 431.32182,340.2444 432.30545,338.9937 433.28125,337.71875 C 434.25712,336.44374 435.21364,335.12559 436.1875,333.78125 C 437.16138,332.43686 438.15288,331.05484 439.125,329.65625 C 440.09718,328.25764 441.06073,326.84141 442.03125,325.40625 C 443.00177,323.97107 443.96854,322.54574 444.9375,321.09375 C 445.90647,319.64176 446.8764,318.166 447.84375,316.71875 C 448.81109,315.27147 449.78443,313.82605 450.75,312.40625 C 451.71557,310.9865 452.66153,309.5875 453.625,308.21875 C 454.58842,306.85006 455.57042,305.51275 456.53125,304.21875 C 457.49204,302.92482 458.44888,301.69596 459.40625,300.5 C 460.36355,299.30411 461.32862,298.13823 462.28125,297.0625 C 463.23381,295.98689 464.17897,294.99757 465.125,294.0625 C 466.07085,293.12759 467.00068,292.27673 467.9375,291.5 C 468.87413,290.72343 469.79434,290.01085 470.71875,289.40625 C 471.64287,288.80184 472.55952,288.29909 473.46875,287.875 C 474.37763,287.45109 475.29331,287.11622 476.1875,286.875 C 477.08125,286.63387 477.95857,286.46634 478.84375,286.40625 C 479.72845,286.34619 480.61286,286.37996 481.5,286.5 C 482.38666,286.62 483.28866,286.85433 484.1875,287.15625 C 485.08598,287.45807 485.99178,287.82788 486.90625,288.3125 C 487.82039,288.79695 488.72736,289.36823 489.65625,290.03125 C 490.58491,290.69409 491.52853,291.45015 492.46875,292.28125 C 493.4088,293.11217 494.36403,294.04732 495.3125,295.03125 C 496.26086,296.01505 497.20185,297.06943 498.15625,298.1875 C 499.11055,299.30549 500.07262,300.48768 501.03125,301.71875 C 501.98984,302.94978 502.94446,304.20978 503.90625,305.53125 C 504.86801,306.85268 505.84829,308.2054 506.8125,309.59375 C 507.77671,310.98208 508.72131,312.41224 509.6875,313.84375 C 510.65369,315.27524 511.62585,316.73618 512.59375,318.1875 C 513.56166,319.63882 514.53051,321.08253 515.5,322.53125 C 516.46951,323.97997 517.4352,325.41864 518.40625,326.84375 C 519.37734,328.26887 520.37105,329.68008 521.34375,331.0625 C 522.31646,332.44497 523.27553,333.80216 524.25,335.125 C 525.22451,336.44789 526.21099,337.71978 527.1875,338.96875 C 528.16405,340.21782 529.1462,341.43021 530.125,342.59375 C 531.10385,343.75737 532.08112,344.89939 533.0625,345.96875 C 534.04397,347.03822 535.01576,348.03075 536,349 C 536.98433,349.96936 537.98151,350.91529 538.96875,351.78125 C 539.95609,352.64725 540.94727,353.45674 541.9375,354.21875 C 542.92784,354.98085 543.91346,355.68395 544.90625,356.34375 C 545.89918,357.00359 546.88026,357.62598 547.875,358.1875 C 548.86987,358.74911 549.87943,359.24965 550.875,359.71875 C 551.87076,360.18794 552.84845,360.61577 553.84375,361 C 554.83917,361.38426 555.84987,361.7231 556.84375,362.03125 C 557.83772,362.33943 558.82093,362.60218 559.8125,362.84375 C 560.80414,363.08536 561.79259,363.31529 562.78125,363.5 C 563.77001,363.68471 564.7643,363.83168 565.75,363.96875 C 566.73574,364.10585 567.70469,364.21472 568.6875,364.3125 C 569.67038,364.41028 570.67576,364.49705 571.65625,364.5625 C 572.63673,364.62795 573.61504,364.68031 574.59375,364.71875 C 575.57255,364.75722 576.55353,364.79765 577.53125,364.8125 C 578.50906,364.82735 579.45992,364.81987 580.4375,364.8125 C 581.4152,364.80515 582.39672,364.78027 583.375,364.75 C 584.35339,364.71974 585.33273,364.68093 586.3125,364.625 C 587.29239,364.56908 588.29927,364.49253 589.28125,364.40625 C 590.26334,364.31996 591.23409,364.21681 592.21875,364.09375 C 593.20351,363.97066 594.19983,363.82404 595.1875,363.65625 C 596.17527,363.48844 597.16563,363.31525 598.15625,363.09375 C 599.147,362.87222 600.13183,362.5973 601.125,362.3125 C 602.1183,362.02763 603.09882,361.73277 604.09375,361.375 C 605.08886,361.01717 606.09814,360.59607 607.09375,360.15625 C 608.08954,359.71636 609.06738,359.24863 610.0625,358.71875 C 611.05781,358.18878 612.06898,357.62637 613.0625,357 C 614.05621,356.37349 615.04013,355.69626 616.03125,354.96875 C 617.02255,354.24112 618.01174,353.45615 619,352.625 C 619.98841,351.79374 620.98352,350.9037 621.96875,349.96875 C 622.95415,349.03369 623.92395,348.03639 624.90625,347 C 625.88861,345.96351 626.86412,344.88288 627.84375,343.75 C 628.82341,342.61704 629.804,341.44032 630.78125,340.21875 C 631.75852,338.99714 632.74362,337.73712 633.71875,336.4375 C 634.69392,335.13785 635.68298,333.80172 636.65625,332.4375 C 637.62954,331.07321 638.59092,329.66286 639.5625,328.25 C 640.5341,326.83712 641.49875,325.41182 642.46875,323.96875 C 643.43877,322.52567 644.40657,321.07787 645.375,319.625 C 646.34346,318.17212 647.31447,316.72193 648.28125,315.28125 C 649.24804,313.84056 650.22259,312.4054 651.1875,311 C 652.15244,309.59462 653.09984,308.22144 654.0625,306.875 C 655.02509,305.52862 656.00896,304.20136 656.96875,302.9375 C 657.92847,301.67372 658.88779,300.47079 659.84375,299.3125 C 660.7996,298.15432 661.73682,297.06225 662.6875,296.03125 C 663.63805,295.00038 664.58795,294.04035 665.53125,293.15625 C 666.47436,292.27232 667.41069,291.47066 668.34375,290.75 C 669.27655,290.02954 670.20542,289.38882 671.125,288.84375 C 672.04429,288.29887 672.97106,287.83185 673.875,287.46875 C 674.77859,287.1058 675.67231,286.83684 676.5625,286.65625 C 677.45224,286.47574 678.33422,286.37508 679.21875,286.375 L 679.21875,283.90625 C 678.16662,283.90635 677.10943,284.00635 676.0625,284.21875 C 675.01605,284.43104 673.97056,284.77254 672.9375,285.1875 C 671.90478,285.60232 670.89235,286.11575 669.875,286.71875 C 668.85794,287.3216 667.84757,288.00594 666.84375,288.78125 C 665.84017,289.55637 664.83728,290.41256 663.84375,291.34375 C 662.85039,292.27477 661.86109,293.27434 660.875,294.34375 C 659.88904,295.41301 658.91827,296.56163 657.9375,297.75 C 656.9568,298.93825 655.9769,300.18234 655,301.46875 C 654.02315,302.75507 653.0365,304.07515 652.0625,305.4375 C 651.0885,306.7998 650.12802,308.17842 649.15625,309.59375 C 648.18452,311.00909 647.18864,312.46093 646.21875,313.90625 C 645.24887,315.35155 644.28072,316.79747 643.3125,318.25 C 642.34429,319.70255 641.37289,321.15569 640.40625,322.59375 C 639.43959,324.03184 638.4963,325.47165 637.53125,326.875 C 636.56619,328.27838 635.58836,329.64964 634.625,331 C 633.66161,332.35038 632.71147,333.65611 631.75,334.9375 C 630.78849,336.21896 629.83435,337.48828 628.875,338.6875 C 627.91559,339.88677 626.95696,341.0183 626,342.125 C 625.04299,343.23172 624.07924,344.30568 623.125,345.3125 C 622.17064,346.31941 621.20132,347.25353 620.25,348.15625 C 619.29859,349.0591 618.35453,349.92124 617.40625,350.71875 C 616.45785,351.51638 615.50789,352.27482 614.5625,352.96875 C 613.61698,353.6628 612.69296,354.31174 611.75,354.90625 C 610.80686,355.50086 609.84762,356.03 608.90625,356.53125 C 607.96473,357.03259 607.03462,357.49062 606.09375,357.90625 C 605.1527,358.32197 604.19154,358.69269 603.25,359.03125 C 602.30829,359.36988 601.38083,359.66696 600.4375,359.9375 C 599.49401,360.20806 598.53963,360.44475 597.59375,360.65625 C 596.64773,360.86777 595.69883,361.05756 594.75,361.21875 C 593.80101,361.37996 592.85809,361.53727 591.90625,361.65625 C 590.95427,361.77523 590.0171,361.85363 589.0625,361.9375 C 588.10782,362.02138 587.14431,362.10164 586.1875,362.15625 C 585.23063,362.21088 584.27078,362.25161 583.3125,362.28125 C 582.35412,362.3109 581.39648,362.33654 580.4375,362.34375 C 579.47844,362.35098 578.52135,362.32706 577.5625,362.3125 C 576.60356,362.29793 575.64536,362.28764 574.6875,362.25 C 573.72959,362.21238 572.76866,362.15758 571.8125,362.09375 C 570.85631,362.02992 569.89127,361.93863 568.9375,361.84375 C 567.98369,361.74885 567.04462,361.6635 566.09375,361.53125 C 565.14277,361.399 564.19787,361.23957 563.25,361.0625 C 562.30204,360.88539 561.3512,360.66773 560.40625,360.4375 C 559.46116,360.20725 558.50513,359.94851 557.5625,359.65625 C 556.61974,359.36396 555.69127,359.05085 554.75,358.6875 C 553.80864,358.32409 552.84721,357.91211 551.90625,357.46875 C 550.96518,357.02533 550.03557,356.56291 549.09375,356.03125 C 548.15183,355.49955 547.22501,354.90842 546.28125,354.28125 C 545.3374,353.65397 544.38382,352.97823 543.4375,352.25 C 542.49107,351.52169 541.54307,350.73889 540.59375,349.90625 C 539.64435,349.07349 538.7023,348.18782 537.75,347.25 C 536.79758,346.31209 535.83017,345.32206 534.875,344.28125 C 533.91974,343.24035 532.95776,342.13855 532,341 C 531.04214,339.86136 530.08506,338.69673 529.125,337.46875 C 528.16485,336.2407 527.2121,334.96229 526.25,333.65625 C 525.28783,332.35011 524.30764,330.99495 523.34375,329.625 C 522.37979,328.25502 521.43438,326.85462 520.46875,325.4375 C 519.50316,324.02039 518.52969,322.60151 517.5625,321.15625 C 516.59533,319.71101 515.62503,318.26512 514.65625,316.8125 C 513.68751,315.3599 512.72048,313.9066 511.75,312.46875 C 510.77953,311.0309 509.81621,309.58771 508.84375,308.1875 C 507.87132,306.78731 506.88114,305.43322 505.90625,304.09375 C 504.93138,302.75432 503.97805,301.44352 503,300.1875 C 502.02199,298.93155 501.01356,297.7133 500.03125,296.5625 C 499.04899,295.41179 498.08206,294.33773 497.09375,293.3125 C 496.1056,292.28741 495.12162,291.31843 494.125,290.4375 C 493.12856,289.5567 492.10175,288.75072 491.09375,288.03125 C 490.086,287.31195 489.085,286.66687 488.0625,286.125 C 487.04031,285.5833 486.00691,285.12999 484.96875,284.78125 C 483.93095,284.43265 482.89371,284.2046 481.84375,284.0625 C 480.79423,283.92048 479.73947,283.86608 478.6875,283.9375 C 477.63604,284.00887 476.57415,284.18738 475.53125,284.46875 C 474.48878,284.74997 473.46527,285.14564 472.4375,285.625 C 471.41009,286.10421 470.3875,286.68153 469.375,287.34375 C 468.36275,288.00579 467.3438,288.7646 466.34375,289.59375 C 465.34395,290.4227 464.36576,291.30195 463.375,292.28125 C 462.38437,293.2604 461.39037,294.32625 460.40625,295.4375 C 459.42224,296.54865 458.4481,297.71406 457.46875,298.9375 C 456.48946,300.16084 455.50711,301.43577 454.53125,302.75 C 453.55544,304.06416 452.5982,305.42991 451.625,306.8125 C 450.65181,308.19505 449.6586,309.60337 448.6875,311.03125 C 447.71643,312.45913 446.75057,313.89351 445.78125,315.34375 C 444.81194,316.79394 443.84269,318.26867 442.875,319.71875 C 441.90732,321.16882 440.93486,322.60258 439.96875,324.03125 C 439.00261,325.45993 438.05826,326.86243 437.09375,328.25 C 436.12925,329.63763 435.15024,331.01473 434.1875,332.34375 C 433.2247,333.67281 432.27331,334.96343 431.3125,336.21875 C 430.35166,337.47416 429.39609,338.67441 428.4375,339.84375 C 427.47885,341.01318 426.51859,342.14469 425.5625,343.21875 C 424.60635,344.29286 423.64079,345.30881 422.6875,346.28125 C 421.73411,347.25379 420.79406,348.19485 419.84375,349.0625 C 418.89335,349.93026 417.94729,350.73729 417,351.5 C 416.05259,352.26278 415.10075,352.96478 414.15625,353.625 C 413.2116,354.28533 412.25481,354.9061 411.3125,355.46875 C 410.37002,356.0315 409.44108,356.55941 408.5,357.03125 C 407.55877,357.50314 406.62843,357.92357 405.6875,358.3125 C 404.74636,358.70153 403.78581,359.0601 402.84375,359.375 C 401.90157,359.68993 400.97539,359.96887 400.03125,360.21875 C 399.08696,360.46864 398.13433,360.68123 397.1875,360.875 C 396.24051,361.06881 395.29359,361.22876 394.34375,361.375 C 393.39375,361.52128 392.42153,361.64348 391.46875,361.75 C 390.51581,361.85654 389.58041,361.95771 388.625,362.03125 C 387.66954,362.1048 386.7074,362.17284 385.75,362.21875 C 384.79255,362.26465 383.83363,362.29051 382.875,362.3125 C 381.91635,362.3345 380.95906,362.34376 380,362.34375 C 379.04089,362.34374 378.08362,362.33451 377.125,362.3125 C 376.16632,362.29048 375.20739,362.26466 374.25,362.21875 C 373.29255,362.17281 372.3304,362.10482 371.375,362.03125 C 370.4195,361.95766 369.48407,361.85658 368.53125,361.75 C 367.57832,361.64341 366.60613,361.52132 365.65625,361.375 C 364.70626,361.22867 363.75933,361.06885 362.8125,360.875 C 361.86553,360.68114 360.91288,360.46866 359.96875,360.21875 C 359.0245,359.9688 358.09829,359.68995 357.15625,359.375 C 356.21405,359.06001 355.25348,358.70156 354.3125,358.3125 C 353.37139,357.9234 352.4411,357.50314 351.5,357.03125 C 350.55875,356.55926 349.62983,356.03151 348.6875,355.46875 C 347.74502,354.9059 346.78826,354.28533 345.84375,353.625 C 344.89911,352.96459 343.94729,352.26277 343,351.5 C 342.05258,350.73709 341.10652,349.93025 340.15625,349.0625 C 339.20584,348.19465 338.26581,347.2538 337.3125,346.28125 C 336.35913,345.30864 335.39359,344.29288 334.4375,343.21875 C 333.48134,342.14454 332.52109,341.0132 331.5625,339.84375 C 330.60385,338.67423 329.64828,337.47416 328.6875,336.21875 C 327.72665,334.96328 326.77527,333.67284 325.8125,332.34375 C 324.84971,331.0146 323.8707,329.63764 322.90625,328.25 C 321.94173,326.86233 320.99738,325.45993 320.03125,324.03125 C 319.06513,322.60254 318.09268,321.16882 317.125,319.71875 C 316.15731,318.26868 315.18806,316.79392 314.21875,315.34375 C 313.24945,313.89354 312.28356,312.45911 311.3125,311.03125 C 310.34142,309.60343 309.34822,308.19503 308.375,306.8125 C 307.40183,305.43002 306.44461,304.06414 305.46875,302.75 C 304.49293,301.43591 303.5106,300.16081 302.53125,298.9375 C 301.55197,297.71426 300.57784,296.54863 299.59375,295.4375 C 298.60974,294.3265 297.61579,293.26039 296.625,292.28125 C 295.63438,291.30226 294.625,290.42269 293.625,289.59375 C 292.62515,288.76493 291.63752,288.00579 290.625,287.34375 C 289.61274,286.68187 288.59028,286.10418 287.5625,285.625 C 286.53507,285.14599 285.51167,284.74987 284.46875,284.46875 C 283.4263,284.18773 282.36445,284.0087 281.3125,283.9375 C 280.26102,283.86632 279.20625,283.92021 278.15625,284.0625 C 277.10674,284.20474 276.06943,284.43233 275.03125,284.78125 C 273.9935,285.13004 272.96002,285.5829 271.9375,286.125 C 270.91534,286.66689 269.91423,287.3116 268.90625,288.03125 C 267.8985,288.75072 266.87161,289.55637 265.875,290.4375 C 264.87858,291.31843 263.89453,292.28711 262.90625,293.3125 C 261.91807,294.33776 260.95111,295.41158 259.96875,296.5625 C 258.98649,297.71334 257.97808,298.93138 257,300.1875 C 256.022,301.44355 255.06864,302.75419 254.09375,304.09375 C 253.11888,305.43325 252.12871,306.78724 251.15625,308.1875 C 250.18383,309.58772 249.22047,311.03086 248.25,312.46875 C 247.27953,313.90661 246.3125,315.35991 245.34375,316.8125 C 244.37501,318.2651 243.40466,319.71103 242.4375,321.15625 C 241.47032,322.6015 240.49684,324.02045 239.53125,325.4375 C 238.56565,326.85458 237.62018,328.2551 236.65625,329.625 C 235.69228,330.99494 234.71213,332.35023 233.75,333.65625 C 232.78784,334.96229 231.83509,336.24084 230.875,337.46875 C 229.91485,338.69672 228.9578,339.86151 228,341 C 227.04216,342.13854 226.08018,343.24053 225.125,344.28125 C 224.16974,345.32205 223.20232,346.31229 222.25,347.25 C 221.29761,348.18781 220.35554,349.07367 219.40625,349.90625 C 218.45684,350.73889 217.50881,351.52188 216.5625,352.25 C 215.61607,352.97822 214.66246,353.65416 213.71875,354.28125 C 212.77488,354.9084 211.84804,355.4997 210.90625,356.03125 C 209.9643,356.5629 209.03462,357.02553 208.09375,357.46875 C 207.15268,357.91209 206.19122,358.3242 205.25,358.6875 C 204.30866,359.05084 203.38014,359.36405 202.4375,359.65625 C 201.49471,359.94849 200.53872,360.20732 199.59375,360.4375 C 198.64865,360.66771 197.69786,360.88546 196.75,361.0625 C 195.80202,361.23955 194.85712,361.39906 193.90625,361.53125 C 192.95528,361.66348 192.01624,361.74889 191.0625,361.84375 C 190.10868,361.93862 189.14366,362.02993 188.1875,362.09375 C 187.23128,362.15756 186.27034,362.21242 185.3125,362.25 C 184.35455,362.28761 183.39634,362.29797 182.4375,362.3125 C 181.47858,362.32704 180.52147,362.35102 179.5625,362.34375 C 178.60345,362.33651 177.64579,362.31094 176.6875,362.28125 C 175.72914,362.25157 174.76927,362.2109 173.8125,362.15625 C 172.85563,362.10161 171.89209,362.02141 170.9375,361.9375 C 169.98282,361.85359 169.04561,361.77527 168.09375,361.65625 C 167.14178,361.53723 166.19888,361.37999 165.25,361.21875 C 164.30103,361.05749 163.35215,360.8678 162.40625,360.65625 C 161.46023,360.44467 160.50587,360.20808 159.5625,359.9375 C 158.61899,359.66685 157.69155,359.3699 156.75,359.03125 C 155.80828,358.69254 154.84715,358.32198 153.90625,357.90625 C 152.96523,357.49047 152.03514,357.03259 151.09375,356.53125 C 150.15223,356.02984 149.193,355.50087 148.25,354.90625 C 147.30688,354.31153 146.38288,353.6628 145.4375,352.96875 C 144.49198,352.2746 143.54205,351.51638 142.59375,350.71875 C 141.64535,349.92102 140.7013,349.05911 139.75,348.15625 C 138.7986,347.25332 137.82928,346.31941 136.875,345.3125 C 135.92067,344.30552 134.95696,343.23175 134,342.125 C 133.04297,341.01816 132.08435,339.88679 131.125,338.6875 C 130.16559,337.48814 129.21147,336.21899 128.25,334.9375 C 127.28848,333.65598 126.33837,332.3504 125.375,331 C 124.41162,329.64955 123.43379,328.27838 122.46875,326.875 C 121.50368,325.47157 120.56039,324.03185 119.59375,322.59375 C 118.6271,321.15564 117.6557,319.70254 116.6875,318.25 C 115.71928,316.79745 114.75113,315.35153 113.78125,313.90625 C 112.81138,312.46096 111.81549,311.00907 110.84375,309.59375 C 109.87201,308.17845 108.91152,306.79978 107.9375,305.4375 C 106.96351,304.07527 105.9769,302.75507 105,301.46875 C 104.02314,300.18248 103.04327,298.93822 102.0625,297.75 C 101.08181,296.56186 100.11107,295.413 99.125,294.34375 C 98.139021,293.2746 97.149773,292.27475 96.15625,291.34375 C 95.162883,290.41289 94.160074,289.55637 93.15625,288.78125 C 92.152638,288.00628 91.14235,287.32159 90.125,286.71875 C 89.107908,286.11608 88.095563,285.60229 87.0625,285.1875 C 86.029808,284.77288 84.984436,284.43092 83.9375,284.21875 C 82.890878,284.00662 81.83355,283.90633 80.78125,283.90625 z " id="path2183"/>
    <g id="g2296" transform="matrix(0.9208416,-0.3899369,0.3899369,0.9208416,-113.56921,178.71479)">
      <path style="fill:#000000;fill-opacity:1;fill-rule:evenodd;stroke:none;stroke-width:1.57957208;stroke-linecap:butt;stroke-linejoin:miter;stroke-miterlimit:4;stroke-dasharray:none;stroke-opacity:1" d="M 384.75,365.5 L 383.625,366.625 C 423.11553,405.90663 441.40625,424.40625 441.40625,424.40625 L 442.53125,423.3125 C 442.53125,423.3125 424.24344,404.78452 384.75,365.5 z " id="path6270"/>
      <path style="fill-rule:evenodd;stroke:#000000;stroke-width:1.26365767pt;marker-start:none" d="M 395.38381,377.2124 L 404.31919,377.18871 L 384.18497,366.0728 L 395.4075,386.14778 L 395.38381,377.2124 z " id="path2302"/>
    </g>
    <switch style="font-size:28px;font-style:normal;font-variant:normal;font-weight:normal;font-stretch:normal;text-align:start;line-height:100%;writing-mode:lr-tb;text-anchor:start;fill:#000000;fill-opacity:1;stroke:none;stroke-width:1px;stroke-linecap:butt;stroke-linejoin:miter;stroke-opacity:1;font-family:Bookman Old Style"><text xml:space="preserve" style="font-size:28px;font-style:normal;font-variant:normal;font-weight:normal;font-stretch:normal;text-align:start;line-height:100%;writing-mode:lr-tb;text-anchor:start;fill:#000000;fill-opacity:1;stroke:none;stroke-width:1px;stroke-linecap:butt;stroke-linejoin:miter;stroke-opacity:1;font-family:Bookman Old Style" x="348.82422" y="223.76318" id="text9183-ca" sodipodi:linespacing="100%" systemLanguage="ca"><tspan sodipodi:role="line" id="tspan9187-ca" x="348.82422" y="223.76318">Cresta</tspan></text><text xml:space="preserve" style="font-size:28px;font-style:normal;font-variant:normal;font-weight:normal;font-stretch:normal;text-align:start;line-height:100%;writing-mode:lr-tb;text-anchor:start;fill:#000000;fill-opacity:1;stroke:none;stroke-width:1px;stroke-linecap:butt;stroke-linejoin:miter;stroke-opacity:1;font-family:Bookman Old Style" x="348.82422" y="223.76318" id="text9183" sodipodi:linespacing="100%"><tspan sodipodi:role="line" id="tspan9187" x="348.82422" y="223.76318">Crest</tspan></text></switch>
    <switch style="font-size:28px;font-style:normal;font-variant:normal;font-weight:normal;font-stretch:normal;text-align:start;line-height:100%;writing-mode:lr-tb;text-anchor:start;fill:#000000;fill-opacity:1;stroke:none;stroke-width:1px;stroke-linecap:butt;stroke-linejoin:miter;stroke-opacity:1;font-family:Bookman Old Style"><text xml:space="preserve" style="font-size:28px;font-style:normal;font-variant:normal;font-weight:normal;font-stretch:normal;text-align:start;line-height:100%;writing-mode:lr-tb;text-anchor:start;fill:#000000;fill-opacity:1;stroke:none;stroke-width:1px;stroke-linecap:butt;stroke-linejoin:miter;stroke-opacity:1;font-family:Bookman Old Style" x="470.65884" y="406.80972" id="text9189-ca" sodipodi:linespacing="100%" systemLanguage="ca"><tspan sodipodi:role="line" id="tspan9193-ca" x="470.65884" y="406.80972">Vall</tspan></text><text xml:space="preserve" style="font-size:28px;font-style:normal;font-variant:normal;font-weight:normal;font-stretch:normal;text-align:start;line-height:100%;writing-mode:lr-tb;text-anchor:start;fill:#000000;fill-opacity:1;stroke:none;stroke-width:1px;stroke-linecap:butt;stroke-linejoin:miter;stroke-opacity:1;font-family:Bookman Old Style" x="470.65884" y="406.80972" id="text9189" sodipodi:linespacing="100%"><tspan sodipodi:role="line" id="tspan9193" x="470.65884" y="406.80972">Trough</tspan></text></switch>
    <g id="g2181">
      <path style="fill:#000000;fill-opacity:1;fill-rule:evenodd;stroke:none;stroke-width:1.57957208;stroke-linecap:butt;stroke-linejoin:miter;stroke-miterlimit:4;stroke-dasharray:none;stroke-opacity:1" d="M 339.40625,223.96875 C 339.40625,223.96875 321.11552,242.46834 281.625,281.75 L 282.75,282.875 C 322.24342,243.59045 340.53125,225.09375 340.53125,225.09375 L 339.40625,223.96875 z " id="path11484"/>
      <path style="fill-rule:evenodd;stroke:#000000;stroke-width:1.26365767pt;marker-start:none" d="M 293.37925,271.1731 L 293.40294,262.23772 L 282.18041,282.3127 L 302.31463,271.19679 L 293.37925,271.1731 z " id="path2294"/>
    </g>
    <path id="path2187" d="M 471.06285,433.84258 C 471.06285,433.84258 413.51883,434.13806 290.31504,434.30678 L 290.30013,435.89785 C 413.51297,435.72911 471.04793,435.43365 471.04793,435.43365 L 471.06285,433.84258 z " style="fill:#ff0000;fill-opacity:0.98591548;fill-rule:evenodd;stroke:none;stroke-width:1.58000004;stroke-linecap:butt;stroke-linejoin:miter;stroke-miterlimit:4;stroke-dasharray:6.32, 1.58;stroke-dashoffset:0;stroke-opacity:1"/>
    <path id="path2189" d="M 295.75148,435.15859 L 302.25705,428.86478 L 279.5502,435.09747 L 302.20692,441.50126 L 295.75148,435.15859 z " style="fill:#ff0000;fill-rule:evenodd;stroke:none;stroke-width:1.26365767pt;marker-start:none"/>
    <path id="path2199" d="M 463.03579,435.31228 L 456.46128,429.08693 L 479.23546,435.08157 L 456.65057,441.72216 L 463.03579,435.31228 z " style="fill:#ff0000;fill-rule:evenodd;stroke:none;stroke-width:1.26365767pt;marker-start:none"/>
    <switch style="font-size:28px;font-style:normal;font-variant:normal;font-weight:normal;font-stretch:normal;text-align:start;line-height:100%;writing-mode:lr-tb;text-anchor:start;fill:#000000;fill-opacity:1;stroke:none;stroke-width:1px;stroke-linecap:butt;stroke-linejoin:miter;stroke-opacity:1;font-family:Bookman Old Style"><text xml:space="preserve" style="font-size:28px;font-style:normal;font-variant:normal;font-weight:normal;font-stretch:normal;text-align:start;line-height:100%;writing-mode:lr-tb;text-anchor:start;fill:#000000;fill-opacity:1;stroke:none;stroke-width:1px;stroke-linecap:butt;stroke-linejoin:miter;stroke-opacity:1;font-family:Bookman Old Style" x="343.03262" y="465.41943" id="text7064-ca" sodipodi:linespacing="100%" systemLanguage="ca"><tspan sodipodi:role="line" id="tspan7068-ca" x="343.03262" y="465.41943">Període</tspan></text><text xml:space="preserve" style="font-size:28px;font-style:normal;font-variant:normal;font-weight:normal;font-stretch:normal;text-align:start;line-height:100%;writing-mode:lr-tb;text-anchor:start;fill:#000000;fill-opacity:1;stroke:none;stroke-width:1px;stroke-linecap:butt;stroke-linejoin:miter;stroke-opacity:1;font-family:Bookman Old Style" x="343.03262" y="465.41943" id="text7064" sodipodi:linespacing="100%"><tspan sodipodi:role="line" id="tspan7068" x="343.03262" y="465.41943">Cycle</tspan></text></switch>
  </g>
</svg>
